<?xml version="1.0" encoding="UTF-8" standalone="no"?>
<!DOCTYPE svg PUBLIC "-//W3C//DTD SVG 1.1//EN"
 "http://www.w3.org/Graphics/SVG/1.1/DTD/svg11.dtd">
<!-- Generated by graphviz version 7.1.0 (0)
 -->
<!-- Title: G Pages: 1 -->
<svg width="204pt" height="216pt"
 viewBox="0.00 0.00 204.30 216.00" xmlns="http://www.w3.org/2000/svg" xmlns:xlink="http://www.w3.org/1999/xlink">
<g id="graph0" class="graph" transform="scale(0.779783 0.779783) rotate(0) translate(4 273)">
<title>G</title>
<polygon fill="white" stroke="none" points="-4,4 -4,-273 258,-273 258,4 -4,4"/>
<!-- publish -->
<g id="node1" class="node">
<title>publish</title>
<polygon fill="none" stroke="black" points="137.5,-269 16.5,-269 16.5,-233 137.5,-233 137.5,-269"/>
<text text-anchor="middle" x="77" y="-247.3" font-family="Times,serif" font-size="14.00">Publishing project?</text>
</g>
<!-- consult -->
<g id="node3" class="node">
<title>consult</title>
<polygon fill="none" stroke="black" points="170,-197 0,-197 0,-161 170,-161 170,-197"/>
<text text-anchor="middle" x="85" y="-175.3" font-family="Times,serif" font-size="14.00">Consult project specification</text>
</g>
<!-- publish&#45;&gt;consult -->
<g id="edge1" class="edge">
<title>publish&#45;&gt;consult</title>
<path fill="none" stroke="black" d="M78.98,-232.7C79.81,-225.41 80.8,-216.73 81.74,-208.54"/>
<polygon fill="black" stroke="black" points="85.22,-208.94 82.87,-198.61 78.26,-208.15 85.22,-208.94"/>
</g>
<!-- export -->
<g id="node2" class="node">
<title>export</title>
<polygon fill="none" stroke="black" points="254,-269 156,-269 156,-233 254,-233 254,-269"/>
<text text-anchor="middle" x="205" y="-247.3" font-family="Times,serif" font-size="14.00">Exporting file?</text>
</g>
<!-- process -->
<g id="node4" class="node">
<title>process</title>
<polygon fill="none" stroke="black" points="202.5,-125 79.5,-125 79.5,-72 202.5,-72 202.5,-125"/>
<text text-anchor="middle" x="141" y="-109.8" font-family="Times,serif" font-size="14.00">Pass Org document</text>
<text text-anchor="middle" x="141" y="-94.8" font-family="Times,serif" font-size="14.00">to ox&#45;html</text>
<text text-anchor="middle" x="141" y="-79.8" font-family="Times,serif" font-size="14.00">for transpilation</text>
</g>
<!-- export&#45;&gt;process -->
<g id="edge3" class="edge">
<title>export&#45;&gt;process</title>
<path fill="none" stroke="black" d="M201.42,-232.79C197.29,-214.5 189.67,-184.97 179,-161 175.12,-152.28 170.19,-143.31 165.17,-135.01"/>
<polygon fill="black" stroke="black" points="168.16,-133.18 159.89,-126.56 162.23,-136.9 168.16,-133.18"/>
</g>
<!-- consult&#45;&gt;process -->
<g id="edge2" class="edge">
<title>consult&#45;&gt;process</title>
<path fill="none" stroke="black" d="M97.43,-160.58C102.93,-152.87 109.6,-143.51 116.06,-134.46"/>
<polygon fill="black" stroke="black" points="118.81,-136.63 121.77,-126.45 113.12,-132.56 118.81,-136.63"/>
</g>
<!-- produce -->
<g id="node5" class="node">
<title>produce</title>
<polygon fill="none" stroke="black" points="222.5,-36 59.5,-36 59.5,0 222.5,0 222.5,-36"/>
<text text-anchor="middle" x="141" y="-14.3" font-family="Times,serif" font-size="14.00">Produce output HTML file</text>
</g>
<!-- process&#45;&gt;produce -->
<g id="edge4" class="edge">
<title>process&#45;&gt;produce</title>
<path fill="none" stroke="black" d="M141,-71.8C141,-64.08 141,-55.56 141,-47.66"/>
<polygon fill="black" stroke="black" points="144.5,-47.84 141,-37.84 137.5,-47.84 144.5,-47.84"/>
</g>
</g>
</svg>
