<?xml version="1.0" encoding="UTF-8" standalone="no"?><svg xmlns="http://www.w3.org/2000/svg" xmlns:xlink="http://www.w3.org/1999/xlink" contentStyleType="text/css" height="483px" preserveAspectRatio="none" style="width:462px;height:483px;background:#FFFFFF;" version="1.1" viewBox="0 0 462 483" width="462px" zoomAndPan="magnify"><defs/><g><!--MD5=[3060d5ec5c3b5b033f7a063c933bac0f]
cluster Animalia--><g id="cluster_Animalia"><path d="M8.5,6.602 L70.5,6.602 A3.75,3.75 0 0 1 73,9.102 L80,31.6699 L452.5,31.6699 A2.5,2.5 0 0 1 455,34.1699 L455,474.102 A2.5,2.5 0 0 1 452.5,476.602 L8.5,476.602 A2.5,2.5 0 0 1 6,474.102 L6,9.102 A2.5,2.5 0 0 1 8.5,6.602 " fill="none" style="stroke:#000000;stroke-width:1.5;"/><line style="stroke:#000000;stroke-width:1.5;" x1="6" x2="80" y1="31.6699" y2="31.6699"/><text fill="#000000" font-family="sans-serif" font-size="14" font-weight="bold" lengthAdjust="spacing" textLength="61" x="10" y="23.5679">Animalia</text></g><!--MD5=[7fd4401f5c5cb0e3d029c879cad30c04]
class Animal--><g id="elem_Animal"><rect codeLine="9" fill="#F1F1F1" height="86.1358" id="Animal" rx="2.5" ry="2.5" style="stroke:#181818;stroke-width:0.5;" width="148" x="155" y="44.602"/><ellipse cx="202.75" cy="60.602" fill="#A9DCDF" rx="11" ry="11" style="stroke:#181818;stroke-width:1.0;"/><path d="M197.9219,66.352 L201.2656,54.1645 L204.4063,54.1645 L207.7813,66.352 L205.3125,66.352 L204.5781,63.3364 L201.0625,63.3364 L200.3125,66.352 L197.9219,66.352 Z M202.3281,58.3051 L201.5781,61.3051 L204.0938,61.3051 L203.375,58.3051 Q203.2344,57.727 203.1094,57.1801 Q202.9844,56.6176 202.8438,56.0395 Q202.7344,56.6176 202.5938,57.1801 Q202.4531,57.727 202.3281,58.3051 Z " fill="#000000"/><text fill="#000000" font-family="sans-serif" font-size="14" font-style="italic" lengthAdjust="spacing" textLength="44" x="223.25" y="66.034">Animal</text><line style="stroke:#181818;stroke-width:0.5;" x1="156" x2="302" y1="76.602" y2="76.602"/><line style="stroke:#181818;stroke-width:0.5;" x1="156" x2="302" y1="84.602" y2="84.602"/><text fill="#000000" font-family="sans-serif" font-size="14" font-style="italic" lengthAdjust="spacing" textLength="136" x="161" y="103.5679">void jump(height: int)</text><text fill="#000000" font-family="sans-serif" font-size="14" font-style="italic" lengthAdjust="spacing" textLength="134" x="161" y="122.6358">void run(velocity: int)</text></g><!--MD5=[e249f0d9e23c809c92f69cb750eafa2e]
class Feline--><g id="elem_Feline"><rect codeLine="14" fill="#F1F1F1" height="105.2038" id="Feline" rx="2.5" ry="2.5" style="stroke:#181818;stroke-width:0.5;" width="187" x="22.5" y="190.602"/><ellipse cx="91.75" cy="206.602" fill="#ADD1B2" rx="11" ry="11" style="stroke:#181818;stroke-width:1.0;"/><path d="M91.2188,213.5239 Q89.4688,213.5239 88.3281,212.7895 Q87.2031,212.0395 86.6406,210.6957 Q86.0938,209.3364 86.0938,207.5395 Q86.0938,205.5082 86.75,204.0551 Q87.4063,202.602 88.6875,201.8207 Q89.9688,201.0395 91.8438,201.0395 Q92.7344,201.0395 93.4063,201.227 Q94.0781,201.3989 94.7656,201.7426 L93.9531,203.7582 Q93.3281,203.4457 92.7813,203.3207 Q92.25,203.1957 91.7656,203.1957 Q90.5938,203.1957 89.8906,203.727 Q89.1875,204.2582 88.8906,205.2114 Q88.5938,206.1645 88.5938,207.4301 Q88.5938,209.4457 89.3125,210.4145 Q90.0313,211.3676 91.625,211.3676 Q92.2188,211.3676 92.8438,211.2114 Q93.4688,211.0551 94.2969,210.6801 L94.2969,212.8989 Q93.5625,213.2114 92.7656,213.3676 Q91.9844,213.5239 91.2188,213.5239 Z " fill="#000000"/><text fill="#000000" font-family="sans-serif" font-size="14" lengthAdjust="spacing" textLength="40" x="112.25" y="212.034">Feline</text><line style="stroke:#181818;stroke-width:0.5;" x1="23.5" x2="208.5" y1="222.602" y2="222.602"/><rect fill="none" height="6" style="stroke:#C82930;stroke-width:1.0;" width="6" x="30.5" y="234.6359"/><text fill="#000000" font-family="sans-serif" font-size="14" lengthAdjust="spacing" textLength="161" x="42.5" y="241.5679">species: Enum&lt;Felidae&gt;</text><line style="stroke:#181818;stroke-width:0.5;" x1="23.5" x2="208.5" y1="249.6699" y2="249.6699"/><ellipse cx="33.5" cy="264.7039" fill="#84BE84" rx="3" ry="3" style="stroke:#038048;stroke-width:1.0;"/><text fill="#000000" font-family="sans-serif" font-size="14" lengthAdjust="spacing" textLength="113" x="42.5" y="268.6358">jump(height: int)</text><ellipse cx="33.5" cy="283.7718" fill="#84BE84" rx="3" ry="3" style="stroke:#038048;stroke-width:1.0;"/><text fill="#000000" font-family="sans-serif" font-size="14" lengthAdjust="spacing" textLength="108" x="42.5" y="287.7038">run(velocity: int)</text></g><!--MD5=[a739e5290913aaea617ce41159f0ecef]
class Canine--><g id="elem_Canine"><rect codeLine="20" fill="#F1F1F1" height="105.2038" id="Canine" rx="2.5" ry="2.5" style="stroke:#181818;stroke-width:0.5;" width="194" x="245" y="190.602"/><ellipse cx="314.25" cy="206.602" fill="#ADD1B2" rx="11" ry="11" style="stroke:#181818;stroke-width:1.0;"/><path d="M313.7188,213.5239 Q311.9688,213.5239 310.8281,212.7895 Q309.7031,212.0395 309.1406,210.6957 Q308.5938,209.3364 308.5938,207.5395 Q308.5938,205.5082 309.25,204.0551 Q309.9063,202.602 311.1875,201.8207 Q312.4688,201.0395 314.3438,201.0395 Q315.2344,201.0395 315.9063,201.227 Q316.5781,201.3989 317.2656,201.7426 L316.4531,203.7582 Q315.8281,203.4457 315.2813,203.3207 Q314.75,203.1957 314.2656,203.1957 Q313.0938,203.1957 312.3906,203.727 Q311.6875,204.2582 311.3906,205.2114 Q311.0938,206.1645 311.0938,207.4301 Q311.0938,209.4457 311.8125,210.4145 Q312.5313,211.3676 314.125,211.3676 Q314.7188,211.3676 315.3438,211.2114 Q315.9688,211.0551 316.7969,210.6801 L316.7969,212.8989 Q316.0625,213.2114 315.2656,213.3676 Q314.4844,213.5239 313.7188,213.5239 Z " fill="#000000"/><text fill="#000000" font-family="sans-serif" font-size="14" lengthAdjust="spacing" textLength="47" x="334.75" y="212.034">Canine</text><line style="stroke:#181818;stroke-width:0.5;" x1="246" x2="438" y1="222.602" y2="222.602"/><rect fill="none" height="6" style="stroke:#C82930;stroke-width:1.0;" width="6" x="253" y="234.6359"/><text fill="#000000" font-family="sans-serif" font-size="14" lengthAdjust="spacing" textLength="168" x="265" y="241.5679">species: Enum&lt;Canidae&gt;</text><line style="stroke:#181818;stroke-width:0.5;" x1="246" x2="438" y1="249.6699" y2="249.6699"/><ellipse cx="256" cy="264.7039" fill="#84BE84" rx="3" ry="3" style="stroke:#038048;stroke-width:1.0;"/><text fill="#000000" font-family="sans-serif" font-size="14" lengthAdjust="spacing" textLength="113" x="265" y="268.6358">jump(height: int)</text><ellipse cx="256" cy="283.7718" fill="#84BE84" rx="3" ry="3" style="stroke:#038048;stroke-width:1.0;"/><text fill="#000000" font-family="sans-serif" font-size="14" lengthAdjust="spacing" textLength="108" x="265" y="287.7038">run(velocity: int)</text></g><!--MD5=[e003bd0ad492c1594c85cd962a1e9016]
class Felidae--><g id="elem_Felidae"><rect codeLine="26" fill="#F1F1F1" height="105.2038" id="Felidae" rx="2.5" ry="2.5" style="stroke:#181818;stroke-width:0.5;" width="80" x="76" y="355.602"/><ellipse cx="91" cy="371.602" fill="#EB937F" rx="11" ry="11" style="stroke:#181818;stroke-width:1.0;"/><path d="M87.3594,378.102 L87.3594,365.9614 L95.0156,365.9614 L95.0156,368.0864 L89.7344,368.0864 L89.7344,370.7426 L94.75,370.7426 L94.75,372.8676 L89.7344,372.8676 L89.7344,375.977 L95.0156,375.977 L95.0156,378.102 L87.3594,378.102 Z " fill="#000000"/><text fill="#000000" font-family="sans-serif" font-size="14" lengthAdjust="spacing" textLength="48" x="105" y="377.034">Felidae</text><line style="stroke:#181818;stroke-width:0.5;" x1="77" x2="155" y1="387.602" y2="387.602"/><text fill="#000000" font-family="sans-serif" font-size="14" lengthAdjust="spacing" textLength="48" x="82" y="406.5679">Jaguar,</text><text fill="#000000" font-family="sans-serif" font-size="14" lengthAdjust="spacing" textLength="32" x="82" y="425.6358">Lion,</text><text fill="#000000" font-family="sans-serif" font-size="14" lengthAdjust="spacing" textLength="49" x="82" y="444.7038">Cougar</text><line style="stroke:#181818;stroke-width:0.5;" x1="77" x2="155" y1="452.8057" y2="452.8057"/></g><!--MD5=[daecc7eff46ea50911bc75fa897b79e5]
class Canidae--><g id="elem_Canidae"><rect codeLine="32" fill="#F1F1F1" height="105.2038" id="Canidae" rx="2.5" ry="2.5" style="stroke:#181818;stroke-width:0.5;" width="87" x="298.5" y="355.602"/><ellipse cx="313.5" cy="371.602" fill="#EB937F" rx="11" ry="11" style="stroke:#181818;stroke-width:1.0;"/><path d="M309.8594,378.102 L309.8594,365.9614 L317.5156,365.9614 L317.5156,368.0864 L312.2344,368.0864 L312.2344,370.7426 L317.25,370.7426 L317.25,372.8676 L312.2344,372.8676 L312.2344,375.977 L317.5156,375.977 L317.5156,378.102 L309.8594,378.102 Z " fill="#000000"/><text fill="#000000" font-family="sans-serif" font-size="14" lengthAdjust="spacing" textLength="55" x="327.5" y="377.034">Canidae</text><line style="stroke:#181818;stroke-width:0.5;" x1="299.5" x2="384.5" y1="387.602" y2="387.602"/><text fill="#000000" font-family="sans-serif" font-size="14" lengthAdjust="spacing" textLength="34" x="304.5" y="406.5679">Wolf,</text><text fill="#000000" font-family="sans-serif" font-size="14" lengthAdjust="spacing" textLength="26" x="304.5" y="425.6358">Fox,</text><text fill="#000000" font-family="sans-serif" font-size="14" lengthAdjust="spacing" textLength="27" x="304.5" y="444.7038">Dog</text><line style="stroke:#181818;stroke-width:0.5;" x1="299.5" x2="384.5" y1="452.8057" y2="452.8057"/></g><!--MD5=[5ad1dd8f6cffe74230053c20893a10ec]
reverse link Animal to Feline--><g id="link_Animal_Feline"><path codeLine="3" d="M185.24,148.042 C174.98,161.992 164.12,176.742 154.12,190.322 " fill="none" id="Animal-backto-Feline" style="stroke:#181818;stroke-width:1.0;"/><polygon fill="none" points="179.43,144.132,196.93,132.172,190.71,152.432,179.43,144.132" style="stroke:#181818;stroke-width:1.0;"/></g><!--MD5=[2de52706d3995c6ebdeaa719a31095ea]
reverse link Animal to Canine--><g id="link_Animal_Canine"><path codeLine="4" d="M272.76,148.042 C283.02,161.992 293.88,176.742 303.88,190.322 " fill="none" id="Animal-backto-Canine" style="stroke:#181818;stroke-width:1.0;"/><polygon fill="none" points="267.29,152.432,261.07,132.172,278.57,144.132,267.29,152.432" style="stroke:#181818;stroke-width:1.0;"/></g><!--MD5=[914bd8d47da67fc87fd0c4dc9e2daf14]
link Feline to Felidae--><g id="link_Feline_Felidae"><path codeLine="6" d="M116,295.672 C116,312.622 116,331.572 116,348.972 " fill="none" id="Feline-to-Felidae" style="stroke:#181818;stroke-width:1.0;"/><polygon fill="#181818" points="116,353.792,120,344.792,116,348.792,112,344.792,116,353.792" style="stroke:#181818;stroke-width:1.0;"/></g><!--MD5=[5817f2798a1c9d1eb1590a02e5d1c4c2]
link Canine to Canidae--><g id="link_Canine_Canidae"><path codeLine="7" d="M342,295.672 C342,312.622 342,331.572 342,348.972 " fill="none" id="Canine-to-Canidae" style="stroke:#181818;stroke-width:1.0;"/><polygon fill="#181818" points="342,353.792,346,344.792,342,348.792,338,344.792,342,353.792" style="stroke:#181818;stroke-width:1.0;"/></g><!--MD5=[3a19f95bb1ac5d9947c811ec211e8db5]
@startuml
package Animalia {

  Animal <|- - Feline
  Animal <|- - Canine

  Feline - -> Felidae
  Canine - -> Canidae

  abstract class Animal {
     {abstract} void jump(height: int)
     {abstract} void run(velocity: int)
  }
  
  class Feline {
     - species: Enum<Felidae>
     + jump(height: int)
     + run(velocity: int)
  }
  
  class Canine {
     - species: Enum<Canidae>
     + jump(height: int)
     + run(velocity: int)
  }

  enum Felidae {
     Jaguar,
     Lion,
     Cougar
  }
  
  enum Canidae {
     Wolf,
     Fox,
     Dog
  }
}
@enduml

PlantUML version 1.2022.7(Mon Aug 22 18:01:30 CET 2022)
(GPL source distribution)
Java Runtime: OpenJDK Runtime Environment
JVM: OpenJDK 64-Bit Server VM
Default Encoding: UTF-8
Language: en
Country: US
--></g></svg>