<?xml version="1.0" encoding="UTF-8" standalone="no"?>
<!DOCTYPE svg PUBLIC "-//W3C//DTD SVG 1.1//EN"
 "http://www.w3.org/Graphics/SVG/1.1/DTD/svg11.dtd">
<!-- Generated by graphviz version 6.0.1 (0)
 -->
<!-- Title: G Pages: 1 -->
<svg width="262pt" height="279pt"
 viewBox="0.00 0.00 262.00 279.00" xmlns="http://www.w3.org/2000/svg" xmlns:xlink="http://www.w3.org/1999/xlink">
<g id="graph0" class="graph" transform="scale(1 1) rotate(0) translate(4 275)">
<title>G</title>
<polygon fill="white" stroke="none" points="-4,4 -4,-275 258,-275 258,4 -4,4"/>
<!-- publish -->
<g id="node1" class="node">
<title>publish</title>
<polygon fill="none" stroke="black" points="137.5,-271 16.5,-271 16.5,-235 137.5,-235 137.5,-271"/>
<text text-anchor="middle" x="77" y="-249.3" font-family="Times,serif" font-size="14.00">Publishing project?</text>
</g>
<!-- consult -->
<g id="node3" class="node">
<title>consult</title>
<polygon fill="none" stroke="black" points="170,-199 0,-199 0,-161 170,-161 170,-199"/>
<text text-anchor="middle" x="85" y="-183.8" font-family="Times,serif" font-size="14.00">Consult project specification</text>
<text text-anchor="middle" x="85" y="-168.8" font-family="Times,serif" font-size="14.00">(publish.el)</text>
</g>
<!-- publish&#45;&gt;consult -->
<g id="edge1" class="edge">
<title>publish&#45;&gt;consult</title>
<path fill="none" stroke="black" d="M78.94,-234.81C79.8,-227.11 80.85,-217.82 81.83,-209.15"/>
<polygon fill="black" stroke="black" points="85.33,-209.35 82.97,-199.02 78.37,-208.56 85.33,-209.35"/>
</g>
<!-- export -->
<g id="node2" class="node">
<title>export</title>
<polygon fill="none" stroke="black" points="254,-271 156,-271 156,-235 254,-235 254,-271"/>
<text text-anchor="middle" x="205" y="-249.3" font-family="Times,serif" font-size="14.00">Exporting file?</text>
</g>
<!-- process -->
<g id="node4" class="node">
<title>process</title>
<polygon fill="none" stroke="black" points="202.5,-125 79.5,-125 79.5,-72 202.5,-72 202.5,-125"/>
<text text-anchor="middle" x="141" y="-109.8" font-family="Times,serif" font-size="14.00">Pass Org document</text>
<text text-anchor="middle" x="141" y="-94.8" font-family="Times,serif" font-size="14.00">to ox&#45;html</text>
<text text-anchor="middle" x="141" y="-79.8" font-family="Times,serif" font-size="14.00">for transpilation</text>
</g>
<!-- export&#45;&gt;process -->
<g id="edge3" class="edge">
<title>export&#45;&gt;process</title>
<path fill="none" stroke="black" d="M201.56,-234.74C197.49,-216.06 189.89,-185.65 179,-161 174.97,-151.88 169.79,-142.5 164.55,-133.9"/>
<polygon fill="black" stroke="black" points="167.41,-131.87 159.12,-125.26 161.48,-135.59 167.41,-131.87"/>
</g>
<!-- consult&#45;&gt;process -->
<g id="edge2" class="edge">
<title>consult&#45;&gt;process</title>
<path fill="none" stroke="black" d="M97.71,-160.96C103.5,-152.74 110.55,-142.73 117.26,-133.2"/>
<polygon fill="black" stroke="black" points="120.14,-135.19 123.04,-125 114.42,-131.16 120.14,-135.19"/>
</g>
<!-- produce -->
<g id="node5" class="node">
<title>produce</title>
<polygon fill="none" stroke="black" points="222.5,-36 59.5,-36 59.5,0 222.5,0 222.5,-36"/>
<text text-anchor="middle" x="141" y="-14.3" font-family="Times,serif" font-size="14.00">Produce output HTML file</text>
</g>
<!-- process&#45;&gt;produce -->
<g id="edge4" class="edge">
<title>process&#45;&gt;produce</title>
<path fill="none" stroke="black" d="M141,-71.8C141,-63.71 141,-54.76 141,-46.55"/>
<polygon fill="black" stroke="black" points="144.5,-46.33 141,-36.33 137.5,-46.33 144.5,-46.33"/>
</g>
</g>
</svg>
