<?xml version="1.0" encoding="UTF-8" standalone="no"?>
<!DOCTYPE svg PUBLIC "-//W3C//DTD SVG 1.1//EN"
 "http://www.w3.org/Graphics/SVG/1.1/DTD/svg11.dtd">
<!-- Generated by graphviz version 6.0.1 (0)
 -->
<!-- Title: G Pages: 1 -->
<svg width="262pt" height="277pt"
 viewBox="0.00 0.00 262.00 277.00" xmlns="http://www.w3.org/2000/svg" xmlns:xlink="http://www.w3.org/1999/xlink">
<g id="graph0" class="graph" transform="scale(1 1) rotate(0) translate(4 273)">
<title>G</title>
<polygon fill="white" stroke="none" points="-4,4 -4,-273 258,-273 258,4 -4,4"/>
<!-- publish -->
<g id="node1" class="node">
<title>publish</title>
<polygon fill="none" stroke="black" points="137.5,-269 16.5,-269 16.5,-233 137.5,-233 137.5,-269"/>
<text text-anchor="middle" x="77" y="-247.3" font-family="Times,serif" font-size="14.00">Publishing project?</text>
</g>
<!-- consult -->
<g id="node3" class="node">
<title>consult</title>
<polygon fill="none" stroke="black" points="170,-197 0,-197 0,-161 170,-161 170,-197"/>
<text text-anchor="middle" x="85" y="-175.3" font-family="Times,serif" font-size="14.00">Consult project specification</text>
</g>
<!-- publish&#45;&gt;consult -->
<g id="edge1" class="edge">
<title>publish&#45;&gt;consult</title>
<path fill="none" stroke="black" d="M78.98,-232.7C79.86,-224.98 80.92,-215.71 81.9,-207.11"/>
<polygon fill="black" stroke="black" points="85.39,-207.44 83.05,-197.1 78.43,-206.64 85.39,-207.44"/>
</g>
<!-- export -->
<g id="node2" class="node">
<title>export</title>
<polygon fill="none" stroke="black" points="254,-269 156,-269 156,-233 254,-233 254,-269"/>
<text text-anchor="middle" x="205" y="-247.3" font-family="Times,serif" font-size="14.00">Exporting file?</text>
</g>
<!-- process -->
<g id="node4" class="node">
<title>process</title>
<polygon fill="none" stroke="black" points="202.5,-125 79.5,-125 79.5,-72 202.5,-72 202.5,-125"/>
<text text-anchor="middle" x="141" y="-109.8" font-family="Times,serif" font-size="14.00">Pass Org document</text>
<text text-anchor="middle" x="141" y="-94.8" font-family="Times,serif" font-size="14.00">to ox&#45;html</text>
<text text-anchor="middle" x="141" y="-79.8" font-family="Times,serif" font-size="14.00">for transpilation</text>
</g>
<!-- export&#45;&gt;process -->
<g id="edge3" class="edge">
<title>export&#45;&gt;process</title>
<path fill="none" stroke="black" d="M201.42,-232.79C197.29,-214.5 189.67,-184.97 179,-161 174.95,-151.89 169.75,-142.52 164.51,-133.92"/>
<polygon fill="black" stroke="black" points="167.37,-131.89 159.08,-125.28 161.44,-135.61 167.37,-131.89"/>
</g>
<!-- consult&#45;&gt;process -->
<g id="edge2" class="edge">
<title>consult&#45;&gt;process</title>
<path fill="none" stroke="black" d="M97.15,-160.97C102.92,-152.88 110.04,-142.91 116.84,-133.37"/>
<polygon fill="black" stroke="black" points="119.74,-135.33 122.7,-125.16 114.04,-131.26 119.74,-135.33"/>
</g>
<!-- produce -->
<g id="node5" class="node">
<title>produce</title>
<polygon fill="none" stroke="black" points="222.5,-36 59.5,-36 59.5,0 222.5,0 222.5,-36"/>
<text text-anchor="middle" x="141" y="-14.3" font-family="Times,serif" font-size="14.00">Produce output HTML file</text>
</g>
<!-- process&#45;&gt;produce -->
<g id="edge4" class="edge">
<title>process&#45;&gt;produce</title>
<path fill="none" stroke="black" d="M141,-71.8C141,-63.71 141,-54.76 141,-46.55"/>
<polygon fill="black" stroke="black" points="144.5,-46.33 141,-36.33 137.5,-46.33 144.5,-46.33"/>
</g>
</g>
</svg>
